HIERARCHY
ROOT Hips
{
	OFFSET -0.001795 -0.223333 0.028219
	CHANNELS 6 Xposition Yposition Zposition Zrotation Yrotation Xrotation 
	JOINT LeftUpLeg
	{
		OFFSET 0.069520 -0.091406 -0.006815
		CHANNELS 3 Zrotation Yrotation Xrotation
		JOINT LeftLeg
		{
			OFFSET 0.034277 -0.375199 -0.004496
			CHANNELS 3 Zrotation Yrotation Xrotation
			JOINT LeftFoot
			{
				OFFSET -0.013596 -0.397961 -0.043693
				CHANNELS 3 Zrotation Yrotation Xrotation
				JOINT LeftToe
				{
					OFFSET 0.026358 -0.055791 0.119288
					CHANNELS 3 Zrotation Yrotation Xrotation
					End Site
					{
						OFFSET 0.000000 0.000000 0.000000
					}
				}
			}
		}
	}
	JOINT RightUpLeg
	{
		OFFSET -0.067670 -0.090522 -0.004320
		CHANNELS 3 Zrotation Yrotation Xrotation
		JOINT RightLeg
		{
			OFFSET -0.038290 -0.382569 -0.008850
			CHANNELS 3 Zrotation Yrotation Xrotation
			JOINT RightFoot
			{
				OFFSET 0.015774 -0.398415 -0.042312
				CHANNELS 3 Zrotation Yrotation Xrotation
				JOINT RightToe
				{
					OFFSET -0.025372 -0.048144 0.123348
					CHANNELS 3 Zrotation Yrotation Xrotation
					End Site
					{
						OFFSET 0.000000 0.000000 0.000000
					}
				}
			}
		}
	}
	JOINT Spine
	{
		OFFSET -0.002533 0.108963 -0.026696
		CHANNELS 3 Zrotation Yrotation Xrotation
		JOINT Spine1
		{
			OFFSET 0.005487 0.135180 0.001092
			CHANNELS 3 Zrotation Yrotation Xrotation
			JOINT Spine2
			{
				OFFSET 0.001457 0.052922 0.025425
				CHANNELS 3 Zrotation Yrotation Xrotation
				JOINT Neck
				{
					OFFSET -0.002778 0.213870 -0.042857
					CHANNELS 3 Zrotation Yrotation Xrotation
					JOINT Head
					{
						OFFSET 0.005152 0.064970 0.051349
						CHANNELS 3 Zrotation Yrotation Xrotation
						End Site
						{
							OFFSET 0.000000 0.000000 0.000000
						}
					}
				}
				JOINT LeftShoulder
				{
					OFFSET 0.078845 0.121749 -0.034090
					CHANNELS 3 Zrotation Yrotation Xrotation
					JOINT LeftArm
					{
						OFFSET 0.090977 0.030469 -0.008868
						CHANNELS 3 Zrotation Yrotation Xrotation
						JOINT LeftForeArm
						{
							OFFSET 0.259612 -0.012772 -0.027456
							CHANNELS 3 Zrotation Yrotation Xrotation
							JOINT LeftHand
							{
								OFFSET 0.249234 0.008986 -0.001171
								CHANNELS 3 Zrotation Yrotation Xrotation
								End Site
								{
									OFFSET 0.000000 0.000000 0.000000
								}
							}
						}
					}
				}
				JOINT RightShoulder
				{
					OFFSET -0.081759 0.118833 -0.038615
					CHANNELS 3 Zrotation Yrotation Xrotation
					JOINT RightArm
					{
						OFFSET -0.096012 0.032551 -0.009143
						CHANNELS 3 Zrotation Yrotation Xrotation
						JOINT RightForeArm
						{
							OFFSET -0.253742 -0.013329 -0.021401
							CHANNELS 3 Zrotation Yrotation Xrotation
							JOINT RightHand
							{
								OFFSET -0.255298 0.007772 -0.005559
								CHANNELS 3 Zrotation Yrotation Xrotation
								End Site
								{
									OFFSET 0.000000 0.000000 0.000000
								}
							}
						}
					}
				}
			}
		}
	}
}
MOTION
Frames: 12
Frame Time: 0.050000
0.063644 0.951088 -0.077235 -2.275236 -4.621714 5.680287 5.310508 -0.624714 -13.260698 1.998711 -0.556050 7.087333 0.291883 3.333685 7.880553 0.000000 0.000000 0.000000 -5.711356 1.111575 -15.438596 -2.093382 0.841838 9.931029 0.788946 -3.627494 10.828972 0.000000 0.000000 0.000000 2.762248 -0.740941 10.769968 -3.938086 1.955548 2.784085 -2.746647 8.669833 11.569147 5.106233 -4.099137 -0.258142 0.000000 0.000000 0.000000 -2.791165 -19.600636 6.571110 -36.780357 -20.094991 0.879059 2.228218 -23.184899 0.180363 0.000000 0.000000 0.000000 2.977127 19.786863 7.938318 43.757540 24.895044 4.165392 11.686083 35.336008 5.306952 0.000000 0.000000 0.000000 
0.065102 0.951485 -0.077558 -2.259127 -4.613159 5.592123 5.320248 -0.633697 -13.568716 1.608800 -0.510583 7.686677 0.367158 3.335699 7.431102 0.000000 0.000000 0.000000 -5.804495 1.109642 -15.561823 -1.816797 0.827786 10.487252 0.477054 -3.962512 10.147067 0.000000 0.000000 0.000000 2.459186 -0.675281 10.254689 -3.383579 1.683932 3.057997 -2.265152 8.338057 10.920234 5.721716 -4.426063 -1.210632 0.000000 0.000000 0.000000 -2.934556 -18.588714 6.231028 -35.223941 -21.178365 1.133389 5.409390 -21.095419 -0.407726 0.000000 0.000000 0.000000 3.656267 18.394513 7.468050 42.045380 24.179978 3.629037 7.516833 36.328310 4.142115 0.000000 0.000000 0.000000 
0.066476 0.951422 -0.077470 -2.204229 -4.270222 5.323534 5.243906 -0.650378 -13.678342 1.556188 -0.515056 7.968225 0.415049 3.499656 7.576597 0.000000 0.000000 0.000000 -5.963834 1.064832 -15.253184 -1.619348 0.788282 10.513682 0.264305 -4.442383 10.395767 0.000000 0.000000 0.000000 2.443876 -0.639895 9.632256 -2.924457 1.447534 3.043924 -1.812980 7.533036 10.374555 5.426941 -4.196538 -1.205643 0.000000 0.000000 0.000000 -2.760827 -16.807749 5.624203 -33.668024 -22.686121 1.437827 8.823151 -19.380819 -0.936136 0.000000 0.000000 0.000000 3.493976 16.608706 6.637612 39.957749 23.128559 2.990937 2.237472 37.662865 2.575751 0.000000 0.000000 0.000000 
0.067689 0.951654 -0.076797 -2.014761 -4.181629 4.876602 4.984088 -0.660722 -13.269801 1.508022 -0.516048 8.183701 0.653703 3.881682 7.372505 0.000000 0.000000 0.000000 -6.038022 1.012876 -14.620993 -1.454432 0.766390 10.676860 0.045158 -4.636199 9.808706 0.000000 0.000000 0.000000 2.013294 -0.554670 8.981041 -2.296847 1.132303 3.244327 -1.379471 6.841763 9.859173 5.409958 -4.178075 -1.307502 0.000000 0.000000 0.000000 -1.850548 -15.515525 5.184048 -31.043563 -23.586619 1.448884 13.686698 -17.867652 -1.622800 0.000000 0.000000 0.000000 2.923882 14.612930 5.684547 36.663796 22.305642 2.351436 -4.047467 37.932527 0.518749 0.000000 0.000000 0.000000 
0.068618 0.951984 -0.075570 -1.980573 -4.302438 4.402011 4.869740 -0.650820 -12.917299 1.665266 -0.552021 8.353875 0.668204 3.981569 7.645056 0.000000 0.000000 0.000000 -6.057193 0.975677 -14.074407 -1.411752 0.761627 10.697937 -0.080147 -4.887997 9.772694 0.000000 0.000000 0.000000 1.996210 -0.513794 8.320125 -1.836485 0.899457 3.075146 -1.251585 6.113152 9.388468 5.067062 -3.984910 -0.907489 0.000000 0.000000 0.000000 -0.646990 -13.670187 4.562186 -28.517896 -24.629775 1.445687 19.519308 -15.517149 -2.204635 0.000000 0.000000 0.000000 2.001042 12.781993 4.799596 33.395587 21.772618 1.870622 -11.759848 37.947192 -2.013030 0.000000 0.000000 0.000000 
0.069369 0.952227 -0.074016 -1.938223 -4.260168 4.122358 4.560270 -0.665871 -12.558345 1.962767 -0.599184 8.118982 0.292089 3.285267 7.575930 0.000000 0.000000 0.000000 -6.018612 0.946638 -13.604447 -1.614625 0.809838 10.840203 -0.169970 -4.858487 9.249155 0.000000 0.000000 0.000000 1.997040 -0.476767 7.657032 -1.498191 0.727239 3.004166 -1.117385 5.432906 8.594807 4.376708 -3.521060 -0.303017 0.000000 0.000000 0.000000 0.205925 -12.132720 4.058088 -25.357746 -24.815251 1.199427 25.872976 -14.498454 -2.894208 0.000000 0.000000 0.000000 0.643239 10.485280 3.789577 29.507447 21.786060 1.527223 -20.538280 36.983583 -4.744850 0.000000 0.000000 0.000000 
0.069672 0.952450 -0.072209 -1.876600 -4.154484 3.796602 4.477416 -0.651069 -12.057005 1.839533 -0.565050 7.818691 0.268378 3.275813 7.647291 0.000000 0.000000 0.000000 -5.972764 0.907774 -12.986610 -1.656741 0.800589 10.586227 -0.321034 -5.078142 9.057908 0.000000 0.000000 0.000000 2.004536 -0.444689 7.080766 -1.188524 0.568725 2.327232 -0.878892 4.668998 8.289632 3.615048 -2.893792 -0.329107 0.000000 0.000000 0.000000 0.456689 -10.528026 3.540501 -21.541722 -24.613690 0.788183 30.529312 -13.020265 -3.128578 0.000000 0.000000 0.000000 -0.951941 8.619568 3.018532 25.084419 21.633943 1.082251 -29.513630 34.183511 -7.005776 0.000000 0.000000 0.000000 
0.069668 0.952077 -0.070144 -1.763665 -3.927406 3.655237 4.501451 -0.640802 -11.801099 1.801247 -0.547643 7.528217 -0.214729 2.530367 7.976756 0.000000 0.000000 0.000000 -5.843110 0.883677 -12.525377 -1.766934 0.822572 10.634954 -0.565687 -5.335895 8.494751 0.000000 0.000000 0.000000 1.908624 -0.399673 6.395415 -0.845894 0.397556 1.726395 -0.807142 3.975135 7.869559 3.035367 -2.316913 -1.087103 0.000000 0.000000 0.000000 0.854680 -9.103981 3.083097 -18.210218 -24.320486 0.428687 33.138885 -12.265601 -3.209210 0.000000 0.000000 0.000000 -2.230632 7.117599 2.473294 20.724564 21.552682 0.675430 -35.576094 29.366575 -7.450568 0.000000 0.000000 0.000000 
0.068966 0.951482 -0.067992 -1.712344 -3.879138 3.454641 4.627224 -0.621100 -11.641489 1.567185 -0.512283 7.685555 -0.295805 2.287009 7.669193 0.000000 0.000000 0.000000 -5.682748 0.872259 -12.211544 -1.834494 0.874266 11.215844 -0.731498 -5.374940 7.716265 0.000000 0.000000 0.000000 2.054128 -0.390009 6.046267 -0.629264 0.296566 0.799560 -0.993115 3.841143 7.929063 3.437056 -2.630403 -1.217786 0.000000 0.000000 0.000000 1.252154 -8.127699 2.770438 -15.086701 -23.828331 0.070525 33.769067 -10.763807 -2.883590 0.000000 0.000000 0.000000 -2.890979 5.737012 2.016017 16.526188 21.118623 0.233410 -38.166171 24.906382 -6.702556 0.000000 0.000000 0.000000 
0.067624 0.950205 -0.065819 -1.840240 -3.982083 3.060727 4.872498 -0.585851 -11.484314 1.580388 -0.541295 8.348045 -0.449961 1.794236 7.067690 0.000000 0.000000 0.000000 -5.323628 0.882153 -12.056797 -1.956371 0.958511 12.056401 -0.674180 -5.078246 7.242719 0.000000 0.000000 0.000000 2.315126 -0.394716 5.861841 -0.767061 0.365464 0.446292 -0.842020 3.716119 7.693524 3.031802 -2.168389 -2.230604 0.000000 0.000000 0.000000 0.999919 -7.285826 2.487178 -12.461138 -23.623140 -0.182693 33.702072 -9.607969 -2.556864 0.000000 0.000000 0.000000 -3.497359 4.995811 1.785105 13.611650 20.860065 -0.033731 -39.136389 20.158289 -5.391331 0.000000 0.000000 0.000000 
0.065565 0.948739 -0.063992 -1.888386 -4.034357 2.731852 5.059964 -0.554672 -11.258083 1.506788 -0.555126 9.055240 -0.302491 1.753745 6.174260 0.000000 0.000000 0.000000 -4.880826 0.906227 -12.045232 -2.006339 1.041883 13.069286 -0.945120 -5.404846 6.601058 0.000000 0.000000 0.000000 2.208033 -0.381528 5.810673 -0.756653 0.364061 -0.144305 -0.652620 3.483740 7.470205 3.114737 -2.260041 -2.104158 0.000000 0.000000 0.000000 0.372605 -7.015123 2.379750 -9.948772 -22.963648 -0.432373 32.994391 -8.986963 -2.309857 0.000000 0.000000 0.000000 -3.244005 4.318084 1.573785 10.863365 21.003412 -0.261143 -38.467302 16.957292 -4.324653 0.000000 0.000000 0.000000 
0.063171 0.947446 -0.062630 -1.871938 -4.363547 2.468843 5.252130 -0.529860 -11.300375 1.470251 -0.579164 9.966758 -0.193584 1.614006 5.251924 0.000000 0.000000 0.000000 -4.565161 0.928658 -12.051764 -2.156544 1.158813 14.123757 -0.861523 -5.003437 5.988874 0.000000 0.000000 0.000000 2.103356 -0.374321 5.863217 -0.862179 0.416114 -0.594101 -0.510731 3.789363 7.013539 3.170470 -2.178455 -2.985053 0.000000 0.000000 0.000000 -0.178097 -6.154398 2.063645 -8.770197 -23.465293 -0.511816 32.458234 -9.351066 -2.370733 0.000000 0.000000 0.000000 -2.969850 3.413352 1.277470 9.487555 21.259599 -0.362598 -37.757962 15.433186 -3.744269 0.000000 0.000000 0.000000 
